<svg xmlns="http://www.w3.org/2000/svg" viewBox="0 0 24 24" fill="none" stroke="#f97316" stroke-width="2.5" stroke-linecap="round" stroke-linejoin="round">
  <rect width="24" height="24" fill="#0f172a" rx="6" stroke="none" />
  <path d="M5 9V7a2 2 0 0 1 2-2h2" />
  <path d="M15 5h2a2 2 0 0 1 2 2v2" />
  <path d="M5 15v2a2 2 0 0 0 2 2h2" />
  <path d="M15 19h2a2 2 0 0 0 2-2v-2" />
  
  <line x1="9" y1="10" x2="9" y2="14" />
  <line x1="12" y1="7" x2="12" y2="17" />
  <line x1="15" y1="10" x2="15" y2="14" />
  <line x1="6" y1="12" x2="8" y2="12" />
  <line x1="16" y1="12" x2="18" y2="12" />
</svg>
